# xmcd
#
# Track frame offsets:
#	150
#	19506
#	34949
#	47968
#	66808
#	83739
#	100578
#	119333
#	134266
#	149094
#	170289
#	183236
#	200004
#	217225
#	232809
#
# Disc length: 3284 seconds
#
# Revision: 0
# Processed by: cddbd v1.5.2PL0 Copyright (c) Steve Scherf et al.
# Submitted via: dBpowerAMP V4.0
#
DISCID=d50cd20f
DTITLE=Various Artist - Forever Summer II
DYEAR=2007
DGENRE=Beach
TTITLE0=Lia and The Wave - All The Good Times - Lia and The Wave
TTITLE1=Cracked Ice - That's My Story - Cracked Ice
TTITLE2=Holiday Band - I Know It's Hard But It's Fair - Holiday Band
TTITLE3=Becky Fox Baldwin - Just The Way You Are - Becky Fox Baldwin
TTITLE4=Rickey Godfrey Band - Running Out Of Time - Rickey Godfrey Band
TTITLE5=Rhonda McDaniel - Why Am I Crying - Rhonda McDaniel
TTITLE6=Band of Oz - Red Hot Love - Band of Oz
TTITLE7=Rachel Tripp - Sweet Charlie Babe - Rachel Tripp
TTITLE8=Vicky Skinner Band - Try Matty's - Vicky Skinner Band
TTITLE9=Sea Cruz - Walk Away From Love - Sea Cruz
TTITLE10=The Jellyrolls - Suffer With The Blues - The Jellyrolls
TTITLE11=Roy Roberts - If You Can't Put It Out - Roy Roberts
TTITLE12=Josh Shilling - Heading To The Beach - Josh Shilling
TTITLE13=Time Piece  - My Sweet Talkin' Daddy - Time Piece 
TTITLE14=The Flashbacks - I Want A Love (Remix) - The Flashbacks
EXTD=
EXTT0=
EXTT1=
EXTT2=
EXTT3=
EXTT4=
EXTT5=
EXTT6=
EXTT7=
EXTT8=
EXTT9=
EXTT10=
EXTT11=
EXTT12=
EXTT13=
EXTT14=
PLAYORDER=
